HIERARCHY
ROOT Hips
{
 OFFSET 0.000000 0.000000 0.000000
 CHANNELS 6 Xposition Yposition Zposition Yrotation Xrotation Zrotation
 JOINT Chest
 {
  OFFSET 0.000000 9.585900 0.002600
  CHANNELS 3 Yrotation Xrotation Zrotation
  JOINT Chest2
  {
   OFFSET 0.000000 9.601200 -0.005300
   CHANNELS 3 Yrotation Xrotation Zrotation
   JOINT Chest3
   {
    OFFSET 0.000000 9.561800 0.000000
    CHANNELS 3 Yrotation Xrotation Zrotation
    JOINT Chest4
    {
     OFFSET 0.000000 9.552100 0.000000
     CHANNELS 3 Yrotation Xrotation Zrotation
     JOINT Neck
     {
      OFFSET 0.000000 14.453000 0.000000
      CHANNELS 3 Yrotation Xrotation Zrotation
      JOINT Head
      {
       OFFSET 0.000000 8.936500 -0.011300
       CHANNELS 3 Yrotation Xrotation Zrotation
       End Site
       {
        OFFSET 0.000000 17.073600 -0.006000
       }
      }
     }
     JOINT RightCollar
     {
      OFFSET -2.921100 9.558500 0.000000
      CHANNELS 3 Yrotation Xrotation Zrotation
      JOINT RightShoulder
      {
       OFFSET -13.519700 0.000000 0.000000
       CHANNELS 3 Yrotation Xrotation Zrotation
       JOINT RightElbow
       {
        OFFSET 0.000000 -29.696600 0.000000
        CHANNELS 3 Yrotation Xrotation Zrotation
        JOINT RightWrist
        {
         OFFSET 0.000000 -24.004700 0.000000
         CHANNELS 3 Yrotation Xrotation Zrotation
         End Site
         {
          OFFSET 0.000000 -17.728500 0.000000
         }
        }
       }
      }
     }
     JOINT LeftCollar
     {
      OFFSET 2.921100 9.558500 0.000000
      CHANNELS 3 Yrotation Xrotation Zrotation
      JOINT LeftShoulder
      {
       OFFSET 13.519700 0.000000 0.000000
       CHANNELS 3 Yrotation Xrotation Zrotation
       JOINT LeftElbow
       {
        OFFSET 0.000000 -29.696600 0.000000
        CHANNELS 3 Yrotation Xrotation Zrotation
        JOINT LeftWrist
        {
         OFFSET 0.000000 -24.004700 0.000000
         CHANNELS 3 Yrotation Xrotation Zrotation
         End Site
         {
          OFFSET 0.000000 -17.728500 0.000000
         }
        }
       }
      }
     }
    }
   }
  }
 }
 JOINT RightHip
 {
  OFFSET -7.771700 -0.012900 -0.001300
  CHANNELS 3 Yrotation Xrotation Zrotation
  JOINT RightKnee
  {
   OFFSET 0.000000 -40.869800 0.001200
   CHANNELS 3 Yrotation Xrotation Zrotation
   JOINT RightAnkle
   {
    OFFSET 0.000000 -39.717900 0.002100
    CHANNELS 3 Yrotation Xrotation Zrotation
    JOINT RightToe
    {
     OFFSET 0.000000 -4.965400 11.033500
     CHANNELS 3 Yrotation Xrotation Zrotation
     End Site
     {
      OFFSET 0.000000 -1.423100 5.872300
     }
    }
   }
  }
 }
 JOINT LeftHip
 {
  OFFSET 7.771700 -0.012900 -0.001300
  CHANNELS 3 Yrotation Xrotation Zrotation
  JOINT LeftKnee
  {
   OFFSET 0.000000 -40.869800 0.001200
   CHANNELS 3 Yrotation Xrotation Zrotation
   JOINT LeftAnkle
   {
    OFFSET 0.000000 -39.717900 0.002100
    CHANNELS 3 Yrotation Xrotation Zrotation
    JOINT LeftToe
    {
     OFFSET 0.000000 -4.965400 11.033500
     CHANNELS 3 Yrotation Xrotation Zrotation
     End Site
     {
      OFFSET 0.000000 -1.423100 5.872300
     }
    }
   }
  }
 }
}
MOTION
Frames: 13
Frame Time: 0.008333
-28.804769 51.778063 26.678904 179.253999 -24.806646 -0.405131 -0.563916 18.404214 -1.224980 -0.046289 2.052561 -0.073327 -0.090244 3.500548 -0.145293 -0.477000 16.047405 -0.693173 -1.230277 18.168187 -5.395020 -0.066991 -6.396215 -5.482143 10.684268 8.158746 12.980209 59.523926 -8.034517 -55.405892 141.263319 -33.660558 -175.117984 5.935031 -0.709399 -30.411508 -10.239783 11.660575 -18.209236 -26.994889 -2.836588 40.108916 179.023551 -42.973293 -145.454626 20.913737 0.242044 14.535131 -11.626129 -57.607098 3.251281 -59.606334 81.268276 -67.990936 -3.802648 -6.354434 6.318167 0.132494 -0.495069 0.068988 4.283321 -56.288477 -3.395652 36.920592 84.188754 41.892784 -1.870804 -9.511629 -1.111199 0.101423 0.337086 0.056504
-28.807005 51.778070 26.676417 179.259083 -24.776994 -0.415157 -0.568203 18.393174 -1.220906 -0.052335 2.101683 -0.083220 -0.088912 3.472691 -0.137999 -0.480523 16.041914 -0.691028 -1.200097 18.178661 -5.377367 -0.060765 -6.442624 -5.483431 10.685723 8.160442 12.975413 59.524030 -8.050876 -55.417274 141.262593 -33.707272 -175.134715 5.928854 -0.671216 -30.451832 -10.238164 11.653529 -18.207953 -26.931745 -2.890382 40.085147 178.893886 -42.897881 -145.259941 20.913781 0.120763 14.739000 -11.650026 -57.636071 3.273006 -59.620988 81.269128 -68.004809 -3.798624 -6.338706 6.316708 0.132825 -0.509610 0.069790 4.279261 -56.321589 -3.384567 36.918469 84.197545 41.885616 -1.875881 -9.511439 -1.109165 0.102580 0.333626 0.060641
-28.808894 51.778974 26.671741 179.265260 -24.760425 -0.426076 -0.573346 18.394709 -1.215457 -0.056471 2.118820 -0.086343 -0.090185 3.475007 -0.137892 -0.476187 16.016008 -0.686388 -1.174449 18.191553 -5.368358 -0.072325 -6.466063 -5.483150 10.675399 8.226344 12.981521 59.547427 -8.077509 -55.467685 141.263906 -33.736025 -175.145250 5.930771 -0.618792 -30.484120 -10.247160 11.669450 -18.211036 -26.898813 -2.931055 40.079075 178.762523 -42.821173 -145.030813 20.909867 0.009425 14.959796 -11.661911 -57.646243 3.287912 -59.641496 81.263377 -68.025835 -3.796258 -6.337110 6.323554 0.135127 -0.511973 0.069117 4.283397 -56.340968 -3.374422 36.844946 84.212903 41.809071 -1.882265 -9.510400 -1.099256 0.107988 0.327108 0.062909
-28.810448 51.779282 26.668081 179.269995 -24.736195 -0.435884 -0.582343 18.403859 -1.215393 -0.056050 2.119476 -0.086203 -0.090396 3.476738 -0.137791 -0.483968 16.021368 -0.686432 -1.128178 18.177425 -5.356567 -0.047634 -6.487892 -5.474894 10.679878 8.223257 12.976882 59.544374 -8.063898 -55.427653 141.232773 -33.680643 -175.113385 5.936922 -0.541818 -30.507218 -10.262278 11.682701 -18.214576 -26.860258 -2.997069 40.088866 178.623738 -42.741434 -144.801517 20.915341 -0.101009 15.193658 -11.680522 -57.664362 3.307358 -59.643505 81.264158 -68.028000 -3.797982 -6.342129 6.328560 0.131575 -0.504868 0.066008 4.277655 -56.367829 -3.364630 36.836792 84.223292 41.797129 -1.876762 -9.512712 -1.094719 0.102969 0.324158 0.064596
-28.811445 51.778575 26.666404 179.277434 -24.698231 -0.446675 -0.591860 18.397929 -1.214335 -0.052822 2.095816 -0.081844 -0.092032 3.486072 -0.139193 -0.498683 16.072720 -0.694444 -1.081998 18.130338 -5.341084 0.069332 -6.483761 -5.467965 10.685853 8.192719 12.970058 59.564096 -8.071901 -55.440094 141.232257 -33.721797 -175.121915 5.949662 -0.521108 -30.502547 -10.300431 11.715698 -18.223173 -26.787134 -3.122057 40.104522 178.473254 -42.658074 -144.605533 20.932196 -0.212933 15.431849 -11.707659 -57.697740 3.336632 -59.626816 81.275314 -68.012454 -3.818499 -6.346301 6.330238 0.131866 -0.497104 0.065977 4.265848 -56.408272 -3.354358 36.858511 84.225955 41.813633 -1.872371 -9.514888 -1.092358 0.096923 0.325175 0.063726
-28.810521 51.777889 26.664420 179.277185 -24.662022 -0.461315 -0.591921 18.393773 -1.205801 -0.053317 2.097067 -0.081626 -0.089998 3.470426 -0.136440 -0.497800 16.064865 -0.692914 -1.043352 18.155209 -5.329244 0.145932 -6.487033 -5.460595 10.683137 8.202588 12.968804 59.575331 -8.071283 -55.436150 141.230246 -33.768739 -175.121771 5.943795 -0.519697 -30.477318 -10.314681 11.731138 -18.228324 -26.687973 -3.198559 40.032855 178.311217 -42.567690 -144.458717 20.951548 -0.326514 15.667971 -11.736658 -57.729708 3.379373 -59.652506 81.271653 -68.036441 -3.825399 -6.346208 6.327826 0.140715 -0.493470 0.068710 4.249738 -56.449705 -3.325821 36.863941 84.236552 41.812314 -1.871906 -9.515501 -1.088258 0.095670 0.323067 0.059661
-28.809814 51.777622 26.661194 179.273766 -24.633527 -0.468542 -0.607046 18.430024 -1.222111 -0.054743 2.100234 -0.082204 -0.092283 3.475589 -0.137150 -0.489984 16.033570 -0.683304 -0.978311 18.159106 -5.311896 0.146755 -6.515953 -5.456110 10.697420 8.180364 12.965124 59.595627 -8.051991 -55.410188 141.212979 -33.794619 -175.109329 5.925955 -0.527924 -30.422611 -10.310399 11.715425 -18.224756 -26.658055 -3.232669 40.026957 178.171194 -42.487900 -144.229047 20.963729 -0.447932 15.906944 -11.752490 -57.754841 3.406979 -59.661130 81.282014 -68.046646 -3.832782 -6.360654 6.328500 0.141479 -0.483987 0.068889 4.230419 -56.482640 -3.295209 36.867533 84.248747 41.804583 -1.876658 -9.515530 -1.088009 0.101077 0.318556 0.059610
-28.808944 51.777395 26.657568 179.269429 -24.607147 -0.471847 -0.610708 18.436964 -1.227902 -0.055225 2.101814 -0.082610 -0.093060 3.478089 -0.137934 -0.512584 16.080090 -0.701093 -0.905397 18.113870 -5.284286 0.221424 -6.513465 -5.447491 10.723503 8.140612 12.968562 59.627853 -8.042829 -55.405201 141.199943 -33.821023 -175.096991 5.892477 -0.548702 -30.342889 -10.299132 11.686859 -18.204516 -26.630020 -3.288985 40.035623 178.035480 -42.408851 -144.002950 20.970583 -0.580592 16.144718 -11.761368 -57.780034 3.426629 -59.660713 81.295785 -68.046201 -3.848299 -6.368039 6.328764 0.140987 -0.483573 0.069069 4.213166 -56.511995 -3.265523 36.853556 84.260345 41.775104 -1.882273 -9.516675 -1.083738 0.105114 0.314504 0.060371
-28.806921 51.777042 26.653962 179.269130 -24.580037 -0.479915 -0.615926 18.442844 -1.228021 -0.053439 2.094835 -0.082050 -0.091792 3.470775 -0.136438 -0.514181 16.082473 -0.702940 -0.864726 18.132716 -5.271723 0.290821 -6.507721 -5.440621 10.714084 8.199566 12.976800 59.671859 -8.041263 -55.429722 141.200464 -33.838332 -175.089400 5.848877 -0.572012 -30.252973 -10.338632 11.757306 -18.231264 -26.564607 -3.397368 40.014896 177.923922 -42.332122 -143.867271 20.979609 -0.721298 16.369169 -11.761577 -57.806172 3.444544 -59.718748 81.297777 -68.100782 -3.856240 -6.372147 6.335509 0.139791 -0.488389 0.068617 4.183034 -56.543007 -3.215218 36.787400 84.275951 41.686442 -1.906868 -9.519375 -1.080969 0.122101 0.312534 0.068740
-28.805832 51.776907 26.649566 179.281330 -24.557077 -0.484637 -0.631145 18.436207 -1.232026 -0.057326 2.112924 -0.084596 -0.094148 3.481976 -0.138984 -0.507490 16.057002 -0.700072 -0.836169 18.143045 -5.261634 0.305387 -6.517685 -5.438122 10.717943 8.191197 12.977629 59.667035 -8.014332 -55.394025 141.237540 -33.854105 -175.093697 5.817923 -0.597903 -30.170598 -10.366731 11.800840 -18.247417 -26.529049 -3.470712 40.010516 177.808193 -42.266741 -143.685283 20.984358 -0.866237 16.582024 -11.769504 -57.827435 3.448777 -59.762703 81.311279 -68.142590 -3.870494 -6.389265 6.337917 0.141886 -0.486493 0.068990 4.172534 -56.567322 -3.210504 36.772499 84.282586 41.668075 -1.910942 -9.518030 -1.081571 0.124451 0.310538 0.068610
-28.804925 51.776161 26.646219 179.286953 -24.526306 -0.483679 -0.642033 18.421573 -1.238204 -0.060317 2.140496 -0.088772 -0.095003 3.484585 -0.139740 -0.512060 16.051262 -0.700326 -0.814721 18.112581 -5.255881 0.371297 -6.478119 -5.434337 10.737375 8.197083 12.969090 59.660158 -7.971293 -55.352427 141.246581 -33.825631 -175.085018 5.785067 -0.616613 -30.097523 -10.374747 11.810520 -18.255184 -26.518443 -3.517774 40.034261 177.674525 -42.197123 -143.456449 20.973373 -1.012553 16.792821 -11.774707 -57.857549 3.452821 -59.794862 81.313521 -68.173895 -3.871370 -6.396494 6.339693 0.145677 -0.487447 0.068262 4.175258 -56.598001 -3.217434 36.755616 84.287186 41.650010 -1.906266 -9.518803 -1.082166 0.122508 0.311186 0.066819
-28.803711 51.775778 26.641773 179.285280 -24.501872 -0.480307 -0.648302 18.431304 -1.248240 -0.055555 2.124108 -0.085891 -0.094887 3.495011 -0.141157 -0.523162 16.064634 -0.706347 -0.781549 18.112466 -5.243889 0.401265 -6.466505 -5.431446 10.751411 8.204050 12.963938 59.669105 -7.941443 -55.338539 141.281047 -33.821403 -175.090839 5.763145 -0.621613 -30.040805 -10.380132 11.821736 -18.261663 -26.494901 -3.586139 40.020968 177.544566 -42.125510 -143.286757 20.955141 -1.156589 17.001235 -11.772082 -57.881955 3.454543 -59.841171 81.310685 -68.219031 -3.861572 -6.398130 6.342252 0.141093 -0.492303 0.066113 4.186558 -56.621310 -3.217228 36.730518 84.296988 41.615984 -1.905325 -9.527787 -1.071551 0.118665 0.315291 0.063244
-28.802570 51.775119 26.637590 179.289851 -24.474698 -0.478509 -0.652248 18.469455 -1.261143 -0.057189 2.076836 -0.078129 -0.095327 3.486457 -0.140102 -0.523567 16.096575 -0.711823 -0.761944 18.113433 -5.235984 0.396256 -6.462945 -5.427131 10.748464 8.209803 12.959876 59.691300 -7.917077 -55.338050 141.408578 -33.870469 -175.119549 5.819875 -0.645094 -30.033377 -10.395925 11.835832 -18.271380 -26.486177 -3.655772 40.018377 177.417144 -42.057250 -143.115027 20.945314 -1.297404 17.197494 -11.772503 -57.908633 3.455009 -59.896490 81.300783 -68.271474 -3.854214 -6.392915 6.340964 0.139823 -0.500889 0.068110 4.188024 -56.645427 -3.221325 36.708462 84.299614 41.591182 -1.904186 -9.537324 -1.070176 0.114960 0.324020 0.058909
